<svg width="16" height="18" viewBox="0 0 16 18" fill="none" xmlns="http://www.w3.org/2000/svg">
<path d="M14.0979 6.82056H9.58202C9.38785 6.82056 9.23046 6.97795 9.23046 7.17212C9.23046 7.36628 9.38785 7.52368 9.58202 7.52368H12.7109V9.03539C12.7109 9.83016 12.0643 10.4768 11.2695 10.4768H4.73048C3.9357 10.4768 3.28908 9.83016 3.28908 9.03539V7.52368H6.41797C6.61214 7.52368 6.76953 7.36628 6.76953 7.17212C6.76953 6.97795 6.61214 6.82056 6.41797 6.82056H1.9021C1.70793 6.82056 1.55054 6.97795 1.55054 7.17212C1.55054 7.36628 1.70793 7.52368 1.9021 7.52368H2.58595V9.03539C2.58595 10.077 3.33253 10.9471 4.31859 11.1398L2.91572 17.5737C2.89304 17.6776 2.91871 17.7863 2.9854 17.8691C3.05212 17.952 3.15281 18.0002 3.25919 18.0002H4.78451C4.94989 18.0002 5.09287 17.8849 5.12802 17.7233L5.92839 14.0451H10.0716L10.8719 17.7233C10.9071 17.8849 11.0501 18.0002 11.2154 18.0002H12.7408C12.8471 18.0002 12.9478 17.952 13.0146 17.8691C13.0813 17.7862 13.1069 17.6776 13.0842 17.5737L11.6813 11.1398C12.6674 10.9471 13.414 10.077 13.414 9.03539V7.52368H14.0978C14.292 7.52368 14.4494 7.36628 14.4494 7.17212C14.4495 6.97795 14.2921 6.82056 14.0979 6.82056ZM4.50122 17.297H3.69566L5.02948 11.1799H5.83227L4.50122 17.297ZM6.08139 13.342L6.55185 11.1799H9.44815L9.91861 13.342H6.08139ZM11.4988 17.297L10.1677 11.1799H10.9705L12.3043 17.297H11.4988Z" fill="#696969"/>
<path d="M14.9267 4.49996C14.7325 4.49996 14.5751 4.65735 14.5751 4.85152C14.5751 5.08415 14.3859 5.27339 14.1533 5.27339C13.9206 5.27339 13.7314 5.08415 13.7314 4.85152C13.7314 4.65735 13.574 4.49996 13.3798 4.49996H12.7662C12.6182 4.05134 12.1954 3.72653 11.6978 3.72653C11.4629 3.72653 11.2447 3.79899 11.0641 3.92259C10.939 3.80148 10.769 3.72653 10.5816 3.72653H9.72026C9.53284 3.72653 9.36283 3.80148 9.23778 3.92259C9.05718 3.79899 8.83893 3.72653 8.60405 3.72653C8.37037 3.72653 8.15314 3.79821 7.97307 3.92066C7.84777 3.79793 7.67653 3.72196 7.48771 3.72196H6.62638C6.43759 3.72196 6.26638 3.79793 6.14109 3.92059C5.96105 3.79818 5.74382 3.72653 5.51017 3.72653C5.27649 3.72653 5.05926 3.79821 4.87919 3.92063C4.7539 3.7979 4.58265 3.72192 4.39386 3.72192H3.53254C3.14969 3.72192 2.8382 4.03341 2.8382 4.41625V4.49993H1.07495C0.880783 4.49993 0.723389 4.65732 0.723389 4.85149C0.723389 5.04565 0.880783 5.20305 1.07495 5.20305H2.83817V5.27758C2.83817 5.66042 3.14965 5.97191 3.5325 5.97191H4.39383C4.57991 5.97191 4.74873 5.89794 4.87353 5.77834C5.05473 5.90318 5.274 5.97648 5.51017 5.97648C5.74632 5.97648 5.96559 5.90318 6.14675 5.77841C6.27151 5.89794 6.44033 5.97191 6.62638 5.97191H7.48771C7.67379 5.97191 7.84261 5.89794 7.96741 5.77834C8.14861 5.90318 8.36787 5.97648 8.60405 5.97648C8.83897 5.97648 9.05718 5.90402 9.23778 5.78041C9.36283 5.90152 9.53281 5.97648 9.72026 5.97648H10.5816C10.769 5.97648 10.939 5.90152 11.0641 5.78041C11.2447 5.90402 11.4629 5.97648 11.6978 5.97648C12.1954 5.97648 12.6182 5.65167 12.7662 5.20305H13.0845C13.2325 5.65174 13.6557 5.97648 14.1533 5.97648C14.7736 5.97648 15.2783 5.47181 15.2783 4.85149C15.2783 4.65735 15.1209 4.49996 14.9267 4.49996ZM4.38507 5.26879H3.54133V4.42504H4.38507V5.26879ZM5.51017 5.27339C5.27755 5.27339 5.0883 5.08415 5.0883 4.85152C5.0883 4.61889 5.27755 4.42965 5.51017 4.42965C5.7428 4.42965 5.93205 4.61889 5.93205 4.85152C5.93205 5.08415 5.7428 5.27339 5.51017 5.27339ZM7.47892 5.26879H6.63517V4.42504H7.47892V5.26879ZM8.60405 5.27339C8.37142 5.27339 8.18218 5.08415 8.18218 4.85152C8.18218 4.61889 8.37142 4.42965 8.60405 4.42965C8.83668 4.42965 9.02593 4.61889 9.02593 4.85152C9.02593 5.08415 8.83668 5.27339 8.60405 5.27339ZM10.5728 5.27339H9.72905V4.42965H10.5728V5.27339ZM11.6978 5.27339C11.4652 5.27339 11.2759 5.08415 11.2759 4.85152C11.2759 4.61889 11.4652 4.42965 11.6978 4.42965C11.9304 4.42965 12.1197 4.61889 12.1197 4.85152C12.1197 5.08415 11.9304 5.27339 11.6978 5.27339Z" fill="#696969"/>
<path d="M10.7013 2.37115C10.6129 2.54401 10.6813 2.7558 10.8541 2.84428C10.9054 2.87051 10.9601 2.88296 11.014 2.88296C11.1418 2.88296 11.265 2.81307 11.3272 2.69149C11.5532 2.25 11.5532 1.72283 11.3272 1.28134C11.2039 1.04042 11.2039 0.752733 11.3272 0.511807C11.4157 0.338944 11.3472 0.127163 11.1744 0.0386747C11.0016 -0.0497785 10.7898 0.0186356 10.7013 0.191464C10.4754 0.632956 10.4754 1.16012 10.7013 1.60162C10.8246 1.84254 10.8246 2.13023 10.7013 2.37115Z" fill="#696969"/>
<path d="M7.69302 2.37115C7.60457 2.54401 7.67298 2.7558 7.84582 2.84428C7.89711 2.87051 7.95178 2.88296 8.00567 2.88296C8.13347 2.88296 8.25673 2.81307 8.31892 2.69149C8.54487 2.25 8.54487 1.72283 8.31892 1.28134C8.19562 1.04042 8.19562 0.752733 8.31892 0.511807C8.40737 0.338944 8.33896 0.127163 8.16613 0.0386747C7.99337 -0.0497785 7.78148 0.0186356 7.69302 0.191464C7.46707 0.632956 7.46707 1.16012 7.69302 1.60162C7.81632 1.84254 7.81632 2.13023 7.69302 2.37115Z" fill="#696969"/>
<path d="M4.68219 2.37115C4.59374 2.54401 4.66215 2.7558 4.83498 2.84428C4.88627 2.87051 4.94094 2.88296 4.99483 2.88296C5.12263 2.88296 5.24588 2.81307 5.30808 2.69149C5.53402 2.25 5.53402 1.72283 5.30808 1.28134C5.18478 1.04042 5.18478 0.752733 5.30808 0.511807C5.39653 0.338944 5.32811 0.127163 5.15529 0.0386747C4.98249 -0.0497785 4.77064 0.0186356 4.68216 0.191464C4.45621 0.632956 4.45621 1.16012 4.68216 1.60162C4.80548 1.84254 4.80548 2.13023 4.68219 2.37115Z" fill="#696969"/>
<path d="M8.24953 7.42067C8.31492 7.35528 8.35254 7.26458 8.35254 7.17212C8.35254 7.07966 8.31492 6.98896 8.24953 6.92356C8.18414 6.85817 8.09344 6.82056 8.00098 6.82056C7.90852 6.82056 7.81781 6.85817 7.75242 6.92356C7.68703 6.98896 7.64941 7.07966 7.64941 7.17212C7.64941 7.26458 7.68703 7.35528 7.75242 7.42067C7.81781 7.48606 7.90852 7.52368 8.00098 7.52368C8.09344 7.52368 8.18414 7.48603 8.24953 7.42067Z" fill="#696969"/>
</svg>
