<svg width="16" height="16" viewBox="0 0 16 16" fill="none" xmlns="http://www.w3.org/2000/svg">
<path d="M13.8691 0H2.15395C1.38891 0 0.766602 0.621094 0.766602 1.38464V14.6154C0.766602 15.3789 1.38891 16 2.15395 16H13.8691C14.6341 16 15.2564 15.3789 15.2564 14.6154V1.38464C15.2564 0.621094 14.6341 0 13.8691 0V0ZM1.6915 1.38464C1.6915 1.13013 1.89894 0.923096 2.15395 0.923096H13.8691C14.1241 0.923096 14.3315 1.13013 14.3315 1.38464V3.23071H1.6915V1.38464ZM14.3315 14.6154C14.3315 14.8699 14.1241 15.0769 13.8691 15.0769H2.15395C1.89894 15.0769 1.6915 14.8699 1.6915 14.6154V4.15381H14.3315V14.6154Z" fill="#696969"/>
<path d="M11.0951 1.61548H10.1705C9.91508 1.61548 9.70801 1.82214 9.70801 2.07703C9.70801 2.33191 9.91508 2.53857 10.1705 2.53857H11.0951C11.3505 2.53857 11.5576 2.33191 11.5576 2.07703C11.5576 1.82214 11.3505 1.61548 11.0951 1.61548Z" fill="#696969"/>
<path d="M13.5611 1.61548H12.6364C12.381 1.61548 12.174 1.82214 12.174 2.07703C12.174 2.33191 12.381 2.53857 12.6364 2.53857H13.5611C13.8164 2.53857 14.0234 2.33191 14.0234 2.07703C14.0234 1.82214 13.8164 1.61548 13.5611 1.61548Z" fill="#696969"/>
<path d="M3.54248 9.61536C3.54248 12.0754 5.54774 14.0769 8.01264 14.0769C10.4777 14.0769 12.4829 12.0754 12.4829 9.61536C12.4829 9.49561 12.478 9.37695 12.4687 9.25964C12.4687 9.25903 12.4686 9.25842 12.4686 9.25793C12.2855 6.96436 10.3571 5.15381 8.01264 5.15381C5.66834 5.15381 3.73989 6.96436 3.55679 9.25793C3.55667 9.25842 3.55667 9.25903 3.55667 9.25964C3.54737 9.37695 3.54248 9.49561 3.54248 9.61536ZM8.01264 13.1538C6.13715 13.1538 4.5974 11.6927 4.47533 9.85132C4.57514 9.89233 4.66357 9.94653 4.76447 10.0084C5.03722 10.176 5.37687 10.3846 6.00872 10.3846C6.64057 10.3846 6.9801 10.1761 7.25297 10.0085C7.47912 9.86963 7.64241 9.76929 8.01251 9.76929C8.38262 9.76929 8.54603 9.86963 8.77218 10.0085C9.04505 10.176 9.3847 10.3846 10.0166 10.3846C10.6484 10.3846 10.9881 10.1761 11.2609 10.0085C11.3618 9.94653 11.4503 9.89233 11.5499 9.85132C11.428 11.6927 9.88825 13.1538 8.01264 13.1538ZM8.01264 6.0769C9.72374 6.0769 11.1556 7.29297 11.4862 8.90466C11.1737 8.97864 10.9596 9.10974 10.7762 9.22229C10.5501 9.36121 10.3867 9.46155 10.0166 9.46155C9.64644 9.46155 9.48304 9.36121 9.25689 9.22229C8.98402 9.05469 8.64449 8.84607 8.01251 8.84607C7.38067 8.84607 7.04114 9.05469 6.76826 9.22229C6.54211 9.36121 6.37871 9.46155 6.00872 9.46155C5.63862 9.46155 5.47521 9.36121 5.24906 9.22229C5.06572 9.10962 4.85168 8.97852 4.53918 8.90466C4.86978 7.29297 6.30165 6.0769 8.01264 6.0769Z" fill="#696969"/>
</svg>
