<svg width="16" height="12" viewBox="0 0 16 12" fill="none" xmlns="http://www.w3.org/2000/svg">
<path d="M0.124173 3.43754C1.17798 4.22798 2.13842 5.13841 2.94894 6.11088C2.16682 5.83944 1.30082 5.68757 0.472609 5.68757H0.311673C0.173954 5.68757 0.0524861 5.77772 0.01258 5.9095C-0.0273261 6.04132 0.0237362 6.18369 0.138329 6.26006C0.297298 6.40075 2.27751 7.41309 2.84713 9.4873C1.95651 9.67846 1.27523 10.4061 1.14642 11.3125H0.311704C0.139111 11.3125 -0.00079498 11.4524 -0.00079498 11.625C-0.00079498 11.7976 0.139111 11.9375 0.311704 11.9375H3.93669C4.10928 11.9375 4.24919 11.7976 4.24919 11.625C4.24919 11.4524 4.10928 11.3125 3.93669 11.3125H1.78039C1.91963 10.6221 2.5116 10.0961 3.24197 10.0641C3.66569 10.0451 4.07616 10.197 4.38556 10.49C4.53362 10.6302 4.77462 10.5932 4.87369 10.4148C5.307 9.63402 6.13168 9.12502 7.06168 9.12502C7.85033 9.12502 8.5532 9.48711 9.01514 10.0654C8.76426 10.3707 8.62417 10.7553 8.62417 11.1563C8.62417 11.2087 8.62667 11.2608 8.63136 11.3125H6.74921C6.57662 11.3125 6.43671 11.4524 6.43671 11.625C6.43671 11.7976 6.57662 11.9375 6.74921 11.9375H15.6866C15.8592 11.9375 15.9991 11.7976 15.9991 11.625C15.9991 11.4524 15.8592 11.3125 15.6866 11.3125H14.8519C14.7231 10.406 14.0417 9.6783 13.1512 9.48724C13.7206 7.41393 15.6973 6.40397 15.86 6.26003C15.9746 6.18366 16.0256 6.04128 15.9857 5.90947C15.9458 5.77769 15.8244 5.68754 15.6866 5.68754H15.5257C14.7836 5.68754 13.9954 5.80913 13.2864 6.02482C14.4138 4.39513 15.6941 3.59276 15.8741 3.43757C15.9909 3.35001 16.0315 3.19329 15.9719 3.06001C15.9124 2.92673 15.7685 2.85248 15.6254 2.88108C13.7808 3.24992 12.0903 4.17079 10.8077 5.43685C10.9889 4.04985 11.398 2.7132 12.0286 1.4523C12.0888 1.33199 12.0652 1.18668 11.9701 1.09158C11.875 0.996491 11.7297 0.972866 11.6094 1.03302C9.94979 1.8628 8.63355 3.33583 8.0298 5.20363C7.06318 3.09373 5.47146 1.3063 3.47244 0.107057C3.34944 0.0332447 3.19207 0.0526508 3.09069 0.154057C2.98929 0.255462 2.96994 0.412837 3.04369 0.535774C4.10397 2.39111 4.79869 3.20111 5.33043 4.85423C3.969 3.5697 2.10367 2.87498 0.311673 2.87498C0.177173 2.87498 0.0577673 2.96105 0.015205 3.08864C-0.0272949 3.21633 0.01658 3.35683 0.124173 3.43754ZM4.52262 9.8028C4.21288 9.59639 3.85575 9.47293 3.48144 9.44415C3.20494 8.31493 2.4532 7.20981 1.40239 6.37841C2.24645 6.49606 3.07535 6.76691 3.74157 7.15131C4.22681 7.85153 4.63603 8.57718 4.9604 9.31227C4.79712 9.46052 4.65069 9.62433 4.52262 9.8028ZM14.218 11.3125H9.26039C9.25307 11.2611 9.24917 11.209 9.24917 11.1563C9.24917 10.8393 9.38661 10.5381 9.62623 10.33C9.82492 10.1575 10.0794 10.0625 10.3429 10.0625C10.6647 10.0625 10.9688 10.2033 11.1772 10.4488C11.1773 10.4489 11.1773 10.449 11.1774 10.4491C11.2918 10.5835 11.4968 10.5964 11.6271 10.4765C11.6272 10.4764 11.6272 10.4764 11.6273 10.4763C11.9338 10.1936 12.3379 10.0456 12.7567 10.0641C13.4868 10.0961 14.0787 10.6221 14.218 11.3125ZM12.5169 9.44408C12.2694 9.46318 12.0292 9.52393 11.805 9.62264C11.9562 8.68699 12.2743 7.77093 12.7532 6.89025C13.2936 6.64394 13.9409 6.46566 14.5981 6.37669C13.5462 7.20828 12.7936 8.31412 12.5169 9.44408ZM14.2846 3.92382C12.6612 5.43379 11.4916 7.44656 11.1691 9.64924C10.9188 9.51199 10.6357 9.43755 10.3429 9.43755C10.0429 9.43755 9.75042 9.51633 9.49314 9.66274C9.38786 9.53236 9.27245 9.41055 9.14723 9.2983C9.31583 8.92871 9.59179 7.821 10.6509 6.53356C11.5961 5.38404 12.8737 4.47454 14.2846 3.92382ZM11.0517 2.09383C10.515 3.40704 10.1975 4.78901 10.1044 6.21534C9.62157 6.81603 9.22648 7.46634 8.92704 8.15393C8.81792 7.48296 8.64886 6.82169 8.42402 6.18147C8.73592 4.52641 9.69107 3.05705 11.0517 2.09383ZM4.32575 1.45783C5.90512 2.7148 7.11952 4.39792 7.8073 6.31053C8.07899 7.06565 8.26739 7.85299 8.3672 8.65068L8.38498 8.79293C7.97464 8.6004 7.52661 8.50002 7.06168 8.50002C6.85008 8.50002 6.64118 8.52149 6.43668 8.56302V7.91874C6.43668 4.3336 4.65778 2.09711 4.32575 1.45783ZM5.65831 6.17744C5.75974 6.75019 5.81168 7.33559 5.81168 7.91878V8.76065C5.69603 8.81118 5.58371 8.86852 5.47525 8.93255C4.53756 6.86969 3.04666 5.04941 1.30142 3.57617C3.05238 3.8446 4.68884 4.80548 5.65831 6.17744Z" fill="#696969"/>
</svg>
