<svg width="16" height="13" viewBox="0 0 16 13" fill="none" xmlns="http://www.w3.org/2000/svg">
<path d="M14.5938 0.892822H1.40625C0.630844 0.892822 0 1.51919 0 2.2891V10.6047C0 11.3746 0.630844 12.001 1.40625 12.001H2.03125V12.5285C2.03125 12.7855 2.24113 12.9939 2.5 12.9939C2.75887 12.9939 2.96875 12.7855 2.96875 12.5285V12.001H13.0312V12.5285C13.0312 12.7855 13.2411 12.9939 13.5 12.9939C13.7589 12.9939 13.9688 12.7855 13.9688 12.5285V12.001H14.5938C15.3692 12.001 16 11.3746 16 10.6047V2.2891C16 1.51919 15.3692 0.892822 14.5938 0.892822ZM11.0312 11.0701H1.40625C1.14778 11.0701 0.9375 10.8613 0.9375 10.6047V2.2891C0.9375 2.03246 1.14778 1.82367 1.40625 1.82367H11.0312V11.0701ZM15.0625 10.6047C15.0625 10.8613 14.8522 11.0701 14.5938 11.0701H11.9688V4.05772H15.0625V10.6047ZM15.0625 3.12686H11.9688V1.82367H14.5938C14.8522 1.82367 15.0625 2.03246 15.0625 2.2891V3.12686Z" fill="#696969"/>
<path d="M13.0406 9.64077C13.0934 9.89297 13.3325 10.0545 13.5919 10.0063C13.8466 9.9536 14.0084 9.71527 13.96 9.45894C13.9011 9.17965 13.6211 9.02705 13.3644 9.10459C13.1233 9.18098 12.997 9.40917 13.0406 9.64077Z" fill="#696969"/>
<path d="M13.0406 7.65492C13.0934 7.90712 13.3325 8.06869 13.5919 8.02044C13.8466 7.96775 14.0084 7.72942 13.96 7.47309C13.901 7.19374 13.6211 7.04124 13.3644 7.11875C13.1233 7.19514 12.997 7.42332 13.0406 7.65492Z" fill="#696969"/>
<path d="M13.0406 5.66908C13.0934 5.92127 13.3325 6.08284 13.5919 6.03459C13.8466 5.9819 14.0084 5.74358 13.96 5.48725C13.901 5.2079 13.6211 5.0554 13.3644 5.13291C13.1233 5.2093 12.997 5.43748 13.0406 5.66908Z" fill="#696969"/>
<path d="M3.4375 10.0152H8.5625C9.33791 10.0152 9.96875 9.38882 9.96875 8.61891V4.27494C9.96875 3.50503 9.33791 2.87866 8.5625 2.87866H3.4375C2.66209 2.87866 2.03125 3.50503 2.03125 4.27494V8.61891C2.03125 9.38882 2.66209 10.0152 3.4375 10.0152ZM2.96875 4.27494C2.96875 4.0183 3.17903 3.80951 3.4375 3.80951H8.5625C8.82097 3.80951 9.03125 4.0183 9.03125 4.27494V8.61891C9.03125 8.87555 8.82097 9.08434 8.5625 9.08434H3.4375C3.17903 9.08434 2.96875 8.87555 2.96875 8.61891V4.27494Z" fill="#696969"/>
</svg>
