<svg width="16" height="14" viewBox="0 0 16 14" fill="none" xmlns="http://www.w3.org/2000/svg">
<path d="M0.596614 10.4324C6.67714 8.70395 8.89964 12.1969 15.6491 10.4351C15.8996 10.3697 16.0496 10.1136 15.9843 9.86317C15.9189 9.6127 15.6628 9.46267 15.4123 9.52801C14.0872 9.87392 12.9387 10.0019 11.8986 10.0033L10.5396 7.81301C11.3429 8.81117 12.8359 8.8687 13.7106 7.93851C14.0952 7.52957 14.2975 6.99532 14.2804 6.4342C14.2227 4.55314 11.918 3.7091 10.6487 5.05876C10.0372 5.70895 9.92633 6.63342 10.2706 7.37935L8.41108 4.38235L11.1705 3.58607C12.0275 3.33879 12.4325 2.35785 11.9971 1.57764C11.6809 1.01114 11.0247 0.741073 10.4015 0.920948L6.22389 2.12648C5.14074 2.43907 4.65568 3.6982 5.25043 4.65682L6.51311 6.69192C5.60289 7.25692 2.71593 9.04717 2.68527 9.06842C1.96061 9.14501 1.18455 9.29067 0.340333 9.53067C0.0913327 9.60145 -0.0531673 9.8607 0.017614 10.1097C0.088364 10.3588 0.347708 10.5032 0.596614 10.4324ZM11.3316 5.70107C11.7728 5.23189 12.5094 5.2106 12.9772 5.65057C13.4459 6.09135 13.4686 6.82748 13.0277 7.29626C12.587 7.76488 11.8508 7.7876 11.3821 7.34676C10.9134 6.90595 10.8907 6.16982 11.3316 5.70107ZM7.5568 6.59601L6.04702 4.1626C5.78036 3.73282 5.99746 3.1676 6.48377 3.02726L10.6614 1.82173C10.8635 1.76335 11.076 1.85095 11.1784 2.03451C11.3198 2.28785 11.1877 2.60535 10.9106 2.68532L7.55649 3.65323C7.25796 3.73939 7.12461 4.0872 7.28814 4.35073L10.7658 9.95579C8.57874 9.7722 6.80164 9.11257 4.55146 9.01239L7.40564 7.24142C7.62561 7.10495 7.6933 6.81598 7.5568 6.59601Z" fill="#696969"/>
<path d="M15.4124 11.7156C8.9548 13.4013 6.68883 9.91353 0.340333 11.7182C0.0913327 11.789 -0.0531673 12.0483 0.017614 12.2973C0.0883952 12.5463 0.347739 12.6908 0.596676 12.62C6.67721 10.8915 8.89971 14.3845 15.6492 12.6227C15.8997 12.5573 16.0497 12.3012 15.9843 12.0507C15.919 11.8002 15.6629 11.6502 15.4124 11.7156Z" fill="#696969"/>
</svg>
