<svg width="10" height="16" viewBox="0 0 10 16" fill="none" xmlns="http://www.w3.org/2000/svg">
<path d="M2.79102 12.406C2.66155 12.406 2.55664 12.5109 2.55664 12.6404V13.6505C2.55664 13.78 2.66155 13.8849 2.79102 13.8849H7.21045C7.33992 13.8849 7.44483 13.78 7.44483 13.6505V12.6404C7.44483 12.5109 7.33992 12.406 7.21045 12.406H2.79102ZM6.97608 13.4162H3.02539V12.8748H6.97608V13.4162Z" fill="#696969"/>
<path d="M6.49786 3.54125V2.75978C6.49786 2.63034 6.39295 2.52541 6.26348 2.52541H5.74027V1.47891H7.02111C7.42886 1.47891 7.76058 1.14719 7.76058 0.739438C7.76058 0.331688 7.42886 0 7.02111 0H3.00861C2.81105 0 2.62533 0.0769063 2.48574 0.216594L1.67089 1.03147C1.52961 1.17272 1.45186 1.3605 1.45186 1.56022C1.45186 1.75994 1.52961 1.94775 1.67086 2.08897C1.81211 2.23019 1.99986 2.30797 2.19961 2.30797C2.39936 2.30797 2.58711 2.23019 2.72839 2.08897L3.33842 1.47891H4.26133V2.52541H3.73811C3.60864 2.52541 3.50374 2.63034 3.50374 2.75978V3.54125C2.09674 3.62741 0.978333 4.79887 0.978333 6.22719V12.5956C0.978333 12.7251 1.08324 12.83 1.21271 12.83C1.34218 12.83 1.44708 12.7251 1.44708 12.5956V6.22719C1.44708 5.00153 2.44424 4.00437 3.66989 4.00437H6.33177C7.55742 4.00437 8.55458 5.00153 8.55458 6.22719V7.13906C8.55458 7.2685 8.65948 7.37344 8.78895 7.37344C8.91842 7.37344 9.02333 7.2685 9.02333 7.13906V6.22719C9.02329 4.79891 7.90486 3.62744 6.49786 3.54125ZM3.24133 1.01016C3.17917 1.01016 3.11958 1.03484 3.07558 1.07881L2.39692 1.7575C2.34421 1.81022 2.27411 1.83922 2.19961 1.83922C2.12511 1.83922 2.05502 1.81019 2.00233 1.75747C1.94964 1.70478 1.92064 1.63472 1.92064 1.56019C1.92064 1.48566 1.94968 1.41559 2.00236 1.36291L2.81724 0.548C2.86836 0.496906 2.93633 0.46875 3.00864 0.46875H7.02114C7.17042 0.46875 7.29186 0.590187 7.29186 0.739469C7.29186 0.88875 7.17042 1.01019 7.02114 1.01019H3.24133V1.01016ZM4.73008 1.47891H5.27152V2.52541H4.73008V1.47891ZM6.02911 2.99416V3.53562H3.97249V2.99416H6.02911Z" fill="#696969"/>
<path d="M8.78895 8.00146C8.65948 8.00146 8.55458 8.1064 8.55458 8.23584V14.8187C8.55458 15.2115 8.23483 15.5312 7.84176 15.5312H2.15989C1.76686 15.5312 1.44708 15.2115 1.44708 14.8187V13.6924C1.44708 13.563 1.34218 13.458 1.21271 13.458C1.08324 13.458 0.978333 13.563 0.978333 13.6924V14.8187C0.978333 15.47 1.50836 15.9999 2.15989 15.9999H7.84176C8.4933 15.9999 9.02333 15.47 9.02333 14.8187V8.23584C9.02333 8.1064 8.91839 8.00146 8.78895 8.00146Z" fill="#696969"/>
<path d="M5.00087 6.4397C3.54875 6.4397 2.36737 7.6211 2.36737 9.0732C2.36737 10.5253 3.54878 11.7067 5.00087 11.7067C6.45296 11.7067 7.63437 10.5253 7.63437 9.0732C7.63437 7.62107 6.453 6.4397 5.00087 6.4397ZM5.00087 11.238C3.80721 11.238 2.83612 10.2669 2.83612 9.07323C2.83612 7.87957 3.80721 6.90848 5.00087 6.90848C6.19453 6.90848 7.16562 7.8796 7.16562 9.07323C7.16562 10.2669 6.19453 11.238 5.00087 11.238Z" fill="#696969"/>
<path d="M5.01632 7.51318C4.95132 7.51318 4.88923 7.54018 4.84488 7.58775C4.6657 7.77996 3.77179 8.77021 3.77179 9.38909C3.77179 10.0753 4.33007 10.6336 5.01632 10.6336C5.70257 10.6336 6.26085 10.0753 6.26085 9.38909C6.26085 8.77021 5.36698 7.77996 5.18776 7.58775C5.14341 7.54021 5.08132 7.51318 5.01632 7.51318ZM5.01632 10.1649C4.58857 10.1649 4.24054 9.81684 4.24054 9.38909C4.24054 9.11312 4.65113 8.52706 5.01632 8.0999C5.38154 8.52706 5.7921 9.11312 5.7921 9.38909C5.7921 9.81687 5.44407 10.1649 5.01632 10.1649Z" fill="#696969"/>
</svg>
